<svg width="156" height="36" viewBox="0 0 156 36" fill="none" xmlns="http://www.w3.org/2000/svg">
<path d="M5.77 24.3751C5.77 25.9951 6.785 26.6301 8.22 26.6301C9.395 26.6301 10.22 26.2151 10.22 25.2001C10.22 24.0251 9.015 23.9001 6.12 22.9151C3.61 22.0551 1.385 21.3901 1.385 18.4351C1.385 15.2551 4.025 13.7651 8.155 13.7651C12.605 13.7651 14.765 16.0201 14.765 18.9451H9.965C9.965 17.6751 9.3 16.9451 7.96 16.9451C6.975 16.9451 6.15 17.3901 6.15 18.3101C6.15 19.4251 7.455 19.6751 10.06 20.4701C12.76 21.2951 14.985 21.9951 14.985 24.9851C14.985 28.6101 11.87 29.9101 8.055 29.9101C3.7 29.9101 1 27.9051 1 24.3501L5.77 24.3751Z" fill="black"/>
<path d="M35.1198 33.4902H16.4648V35.0752H35.1198V33.4902Z" fill="black"/>
<path d="M33.3852 24.6599C32.8752 27.5549 30.2052 29.9049 25.8202 29.9049C20.4502 29.9049 17.5552 26.3449 17.5552 21.8299C17.5552 17.3499 20.3852 13.7549 25.6902 13.7549C30.4902 13.7549 33.5701 16.9949 33.5701 20.7499C33.5701 21.3849 33.5701 22.0849 33.4101 23.0049H22.4502C22.4502 24.8499 23.3102 26.4049 25.7902 26.4049C27.4752 26.4049 28.2702 25.6449 28.6202 24.6549H33.3852V24.6599ZM22.4502 20.3349H28.8102C28.8102 18.3649 27.5052 17.1849 25.6602 17.1849C23.8202 17.1899 22.4502 18.2699 22.4502 20.3349Z" fill="black"/>
<path d="M37.1953 29.49V14.17H42.0603V16.395C42.9203 14.745 44.7003 13.79 47.0853 13.79C49.0553 13.79 50.5503 14.46 51.3753 15.54C52.3303 16.715 52.5803 18.21 52.5803 20.4V29.49H47.7153V21.64C47.7153 19.445 47.0503 17.92 45.0153 17.92C43.0453 17.92 42.0603 19.445 42.0603 21.8V29.49H37.1953Z" fill="black"/>
<path d="M55.2451 14.17H57.6601V9.625H62.4901V14.17H65.9851V17.79H62.4901V23.26C62.4901 25.52 63.3801 25.865 64.5901 25.865C65.1951 25.865 65.8951 25.835 66.3401 25.77V29.49C65.6101 29.615 64.5301 29.745 63.1001 29.745C60.8101 29.745 57.6651 29.46 57.6651 24.34V17.79H55.2501V14.17H55.2451Z" fill="black"/>
<path d="M72.22 6C74 6 75.365 7.37 75.365 9.085C75.365 10.77 74 12.17 72.22 12.17C70.47 12.17 69.105 10.77 69.105 9.085C69.105 7.37 70.47 6 72.22 6ZM69.8 14.17H74.665V29.49H69.8V14.17Z" fill="black"/>
<path d="M90.8749 14.17H95.7399V29.49H90.8749V27.33C90.1449 28.73 88.1749 29.875 86.2049 29.875C81.7849 29.875 78.7349 26.41 78.7349 21.83C78.7349 17.255 81.7849 13.79 86.2049 13.79C88.1749 13.79 90.1449 14.965 90.8749 16.365V14.17ZM90.8749 21.83C90.8749 19.735 89.4149 17.92 87.2199 17.92C85.0249 17.92 83.5649 19.735 83.5649 21.83C83.5649 23.96 85.0249 25.74 87.2199 25.74C89.4149 25.74 90.8749 23.96 90.8749 21.83Z" fill="black"/>
<path d="M100.15 29.49V14.17H105.015V16.395C105.875 14.745 107.655 13.79 110.035 13.79C112.005 13.79 113.5 14.46 114.325 15.54C115.28 16.715 115.53 18.21 115.53 20.4V29.49H110.67V21.64C110.67 19.445 110 17.92 107.965 17.92C105.995 17.92 105.01 19.445 105.01 21.8V29.49H100.15Z" fill="black"/>
<path d="M129.995 20.1798C129.805 18.8148 128.945 17.8898 126.975 17.8898C124.655 17.8898 123.575 19.7348 123.575 21.8298C123.575 23.9598 124.625 25.7698 127.165 25.7698C128.85 25.7698 129.61 25.0398 130.025 23.7348H134.89C134.415 27.1998 131.805 29.9048 126.945 29.9048C121.575 29.9048 118.71 26.0898 118.71 21.8298C118.71 17.6048 121.57 13.7598 126.945 13.7598C132.125 13.7598 134.54 16.8748 134.86 20.1798H129.995Z" fill="black"/>
<path d="M154.705 33.4902H136.365V35.0752H154.705V33.4902Z" fill="black"/>
<path d="M153.29 24.6598C152.78 27.5548 150.11 29.9048 145.725 29.9048C140.355 29.9048 137.46 26.3448 137.46 21.8298C137.46 17.3498 140.29 13.7598 145.595 13.7598C150.395 13.7598 153.475 16.9998 153.475 20.7498C153.475 21.3848 153.475 22.0848 153.315 23.0048H142.35C142.35 24.8498 143.21 26.4048 145.69 26.4048C147.375 26.4048 148.17 25.6448 148.52 24.6548H153.29V24.6598ZM142.355 20.3348H148.715C148.715 18.3648 147.41 17.1898 145.565 17.1898C143.72 17.1898 142.355 18.2698 142.355 20.3348Z" fill="black"/>
</svg>
